<svg xmlns="http://www.w3.org/2000/svg" fill="#25b864" width="88.39427185058594" height="93.14575958251953" viewBox="5.699999809265137 3.405728340148926 88.39427185058594 93.14575958251953" stroke="none" stroke-width="1px"><path d="M7.5 66.6c-1 0-1.8.8-1.8 1.8v3c0 1 .8 1.8 1.8 1.8h2.7c.4 2.1 1.2 4.1 2.4 6L10.7 81c-.7.7-.7 1.8 0 2.5l2.1 2.1c.7.7 1.8.7 2.5 0l1.9-1.9c1.8 1.2 3.9 2.1 5.9 2.5v2.7c0 1 .8 1.8 1.8 1.8h3c1 0 1.8-.8 1.8-1.8v-2.7c2.1-.4 4.1-1.2 6-2.4l1.9 1.9c.7.7 1.8.7 2.5 0l2.1-2.1c.7-.7.7-1.8 0-2.5l-1.9-1.9c1.2-1.8 2.1-3.9 2.5-5.9h2.7c1 0 1.8-.8 1.8-1.8v-3c0-1-.8-1.8-1.8-1.8h-2.7c-.4-2.1-1.2-4.1-2.4-6l1.9-1.9c.7-.7.7-1.8 0-2.5l-2.1-2.1c-.7-.7-1.8-.7-2.5 0l-1.9 1.9c-1.8-1.2-3.9-2.1-5.9-2.5v-2.7c0-1-.8-1.8-1.8-1.8h-3c-1 0-1.8.8-1.8 1.8v2.7c-2.1.4-4.1 1.2-6 2.4l-1.9-1.9c-.7-.7-1.8-.7-2.5 0l-2.1 2.1c-.7.7-.7 1.8 0 2.5l1.9 1.9c-1.2 1.8-2.1 3.9-2.5 5.9l-2.7.1zM21 64.4c3.1-3.1 8.1-3 11.2.1 3.1 3.1 3 8.1-.1 11.2-3.1 3.1-8.1 3-11.2-.1-3.1-3.2-3-8.2.1-11.2zm30.7 12.9l-1.8-.5c-.7-.2-1.3.2-1.5.9l-.5 2c-.2.7.2 1.3.9 1.5l1.8.5c-.1 1.5.1 3 .6 4.4l-1.7.9c-.6.3-.8 1.1-.4 1.7l1 1.8c.3.6 1.1.8 1.7.4l1.6-.9c1 1.1 2.2 2 3.6 2.7l-.5 1.8c-.2.7.2 1.3.9 1.5l2 .5c.7.2 1.3-.2 1.5-.9l.5-1.8c1.5.1 3-.1 4.4-.6l.9 1.6c.3.6 1.1.8 1.7.4l1.8-1c.6-.3.8-1.1.4-1.7l-.9-1.5c1.1-1 2-2.2 2.7-3.6l1.8.5c.7.2 1.3-.2 1.5-.9l.5-2c.2-.7-.2-1.3-.9-1.5l-1.8-.5c.1-1.5-.1-3-.6-4.4l1.6-.9c.6-.3.8-1.1.4-1.7l-1-1.8c-.3-.6-1.1-.8-1.7-.4l-1.6.9c-1-1.1-2.2-2-3.6-2.7l.5-1.8c.2-.7-.2-1.3-.9-1.5l-2-.5c-.7-.2-1.3.2-1.5.9l-.5 1.8c-1.5-.1-3 .1-4.4.6l-.9-1.6c-.3-.6-1.1-.8-1.7-.4l-1.8 1c-.6.3-.8 1.1-.4 1.7l.9 1.6c-1 .9-1.9 2.1-2.6 3.5zm5 3.7c.8-2.9 3.8-4.7 6.7-3.9 2.9.8 4.7 3.8 3.9 6.7-.8 2.9-3.8 4.7-6.7 3.9-2.9-.8-4.6-3.8-3.9-6.7zM42.5 19.9l-4.4-1.8c-1.1-.4-2.3.1-2.7 1.1l-2.2 5.3c-.4 1.1.1 2.3 1.1 2.7l4.4 1.8c-.6 3.2-.7 6.6 0 9.9l-4.4 1.8c-1.1.4-1.6 1.7-1.1 2.7l2.2 5.3c.4 1.1 1.7 1.6 2.7 1.1l4.4-1.8c1.9 2.8 4.3 5.2 7 7l-1.8 4.4c-.4 1.1.1 2.3 1.1 2.7l5.3 2.2c1.1.4 2.3-.1 2.7-1.1l1.8-4.4c3.2.6 6.6.7 9.9 0l1.8 4.4c.4 1.1 1.7 1.6 2.7 1.1l5.3-2.2c1.1-.4 1.6-1.7 1.1-2.7L77.6 55c2.8-1.9 5.2-4.3 7-7l4.4 1.8c1.1.4 2.3-.1 2.7-1.1l2.2-5.3c.4-1.1-.1-2.3-1.1-2.7l-4.4-1.8c.6-3.2.7-6.6 0-9.9l4.4-1.8c1.1-.4 1.6-1.7 1.1-2.7l-2.2-5.3c-.4-1.1-1.7-1.6-2.7-1.1l-4.4 1.8c-1.9-2.8-4.3-5.2-7-7l1.8-4.4c.4-1.1-.1-2.3-1.1-2.7L73 3.6c-1.1-.4-2.3.1-2.7 1.1l-1.8 4.4c-3.2-.6-6.6-.7-9.9 0l-1.8-4.4c-.4-1.1-1.7-1.6-2.7-1.1l-5.3 2.2c-1.1.4-1.6 1.7-1.1 2.7l1.8 4.4c-2.8 1.8-5.1 4.2-7 7zM56.6 17c9.3-3.9 20.1.6 24 9.9 3.9 9.3-.6 20.1-9.9 24-9.3 3.9-20.1-.6-24-9.9-3.8-9.3.6-20.1 9.9-24zm-4.9 25.4c3.3-2.5 6.5-4.2 7.2-4.5.1 0 .1-.1.1-.2v-2c-.5-.9-.8-1.9-1-2.8-.3 0-.7-.5-1.2-2-.6-2.1 0-2.5.6-2.4-.4-1.1-.4-2.2-.1-3.2.3-1.2.9-2.2 1.7-2.9.5-.5 1-.9 1.5-1.3.5-.3.9-.6 1.5-.8.4-.1.9-.2 1.4-.3 1.5-.1 2.6.2 3.4.7 1.2.7 1.7 1.5 1.7 1.5s3 .2 1.7 6.6c.4.1.7.7.2 2.4-.6 2.1-1.1 2.2-1.4 1.9-.1.7-.3 1.5-.7 2.2v2.4c0 .1.1.2.1.2.7.3 4 2 7.2 4.5-2.4 3.3-6.1 5.6-10.3 6.1l-1-4.8c2.4-3.4-.2-3.5-.6-3.5-.5 0-3 .2-.6 3.5l-1 4.8c-4.4-.4-8.1-2.8-10.4-6.1z" stroke="none" fill="#25b864" stroke-width="1px"></path></svg>