<svg xmlns="http://www.w3.org/2000/svg" fill="#25b864" xmlns:xlink="http://www.w3.org/1999/xlink" version="1.1" viewBox="-234.96649250000002 -87.33333333333334 669.932985 223.66666666666666" style="width: 100%; height: 100%; z-index: 5;" stroke="none" stroke-width="1px"><g stroke="none" fill="#25b864" stroke-width="1px"><g fill="#25b864" fill-rule="nonzero" transform="translate(31.67281471784166 -87.33333333333334) scale(1.5459640959009815)" stroke="none" stroke-width="1px"><svg xmlns="http://www.w3.org/2000/svg" fill="#25b864" width="88.39427185058594" height="93.14575958251953" viewBox="5.699999809265137 3.405728340148926 88.39427185058594 93.14575958251953" stroke="none" stroke-width="1px"><path d="M7.5 66.6c-1 0-1.8.8-1.8 1.8v3c0 1 .8 1.8 1.8 1.8h2.7c.4 2.1 1.2 4.1 2.4 6L10.7 81c-.7.7-.7 1.8 0 2.5l2.1 2.1c.7.7 1.8.7 2.5 0l1.9-1.9c1.8 1.2 3.9 2.1 5.9 2.5v2.7c0 1 .8 1.8 1.8 1.8h3c1 0 1.8-.8 1.8-1.8v-2.7c2.1-.4 4.1-1.2 6-2.4l1.9 1.9c.7.7 1.8.7 2.5 0l2.1-2.1c.7-.7.7-1.8 0-2.5l-1.9-1.9c1.2-1.8 2.1-3.9 2.5-5.9h2.7c1 0 1.8-.8 1.8-1.8v-3c0-1-.8-1.8-1.8-1.8h-2.7c-.4-2.1-1.2-4.1-2.4-6l1.9-1.9c.7-.7.7-1.8 0-2.5l-2.1-2.1c-.7-.7-1.8-.7-2.5 0l-1.9 1.9c-1.8-1.2-3.9-2.1-5.9-2.5v-2.7c0-1-.8-1.8-1.8-1.8h-3c-1 0-1.8.8-1.8 1.8v2.7c-2.1.4-4.1 1.2-6 2.4l-1.9-1.9c-.7-.7-1.8-.7-2.5 0l-2.1 2.1c-.7.7-.7 1.8 0 2.5l1.9 1.9c-1.2 1.8-2.1 3.9-2.5 5.9l-2.7.1zM21 64.4c3.1-3.1 8.1-3 11.2.1 3.1 3.1 3 8.1-.1 11.2-3.1 3.1-8.1 3-11.2-.1-3.1-3.2-3-8.2.1-11.2zm30.7 12.9l-1.8-.5c-.7-.2-1.3.2-1.5.9l-.5 2c-.2.7.2 1.3.9 1.5l1.8.5c-.1 1.5.1 3 .6 4.4l-1.7.9c-.6.3-.8 1.1-.4 1.7l1 1.8c.3.6 1.1.8 1.7.4l1.6-.9c1 1.1 2.2 2 3.6 2.7l-.5 1.8c-.2.7.2 1.3.9 1.5l2 .5c.7.2 1.3-.2 1.5-.9l.5-1.8c1.5.1 3-.1 4.4-.6l.9 1.6c.3.6 1.1.8 1.7.4l1.8-1c.6-.3.8-1.1.4-1.7l-.9-1.5c1.1-1 2-2.2 2.7-3.6l1.8.5c.7.2 1.3-.2 1.5-.9l.5-2c.2-.7-.2-1.3-.9-1.5l-1.8-.5c.1-1.5-.1-3-.6-4.4l1.6-.9c.6-.3.8-1.1.4-1.7l-1-1.8c-.3-.6-1.1-.8-1.7-.4l-1.6.9c-1-1.1-2.2-2-3.6-2.7l.5-1.8c.2-.7-.2-1.3-.9-1.5l-2-.5c-.7-.2-1.3.2-1.5.9l-.5 1.8c-1.5-.1-3 .1-4.4.6l-.9-1.6c-.3-.6-1.1-.8-1.7-.4l-1.8 1c-.6.3-.8 1.1-.4 1.7l.9 1.6c-1 .9-1.9 2.1-2.6 3.5zm5 3.7c.8-2.9 3.8-4.7 6.7-3.9 2.9.8 4.7 3.8 3.9 6.7-.8 2.9-3.8 4.7-6.7 3.9-2.9-.8-4.6-3.8-3.9-6.7zM42.5 19.9l-4.4-1.8c-1.1-.4-2.3.1-2.7 1.1l-2.2 5.3c-.4 1.1.1 2.3 1.1 2.7l4.4 1.8c-.6 3.2-.7 6.6 0 9.9l-4.4 1.8c-1.1.4-1.6 1.7-1.1 2.7l2.2 5.3c.4 1.1 1.7 1.6 2.7 1.1l4.4-1.8c1.9 2.8 4.3 5.2 7 7l-1.8 4.4c-.4 1.1.1 2.3 1.1 2.7l5.3 2.2c1.1.4 2.3-.1 2.7-1.1l1.8-4.4c3.2.6 6.6.7 9.9 0l1.8 4.4c.4 1.1 1.7 1.6 2.7 1.1l5.3-2.2c1.1-.4 1.6-1.7 1.1-2.7L77.6 55c2.8-1.9 5.2-4.3 7-7l4.4 1.8c1.1.4 2.3-.1 2.7-1.1l2.2-5.3c.4-1.1-.1-2.3-1.1-2.7l-4.4-1.8c.6-3.2.7-6.6 0-9.9l4.4-1.8c1.1-.4 1.6-1.7 1.1-2.7l-2.2-5.3c-.4-1.1-1.7-1.6-2.7-1.1l-4.4 1.8c-1.9-2.8-4.3-5.2-7-7l1.8-4.4c.4-1.1-.1-2.3-1.1-2.7L73 3.6c-1.1-.4-2.3.1-2.7 1.1l-1.8 4.4c-3.2-.6-6.6-.7-9.9 0l-1.8-4.4c-.4-1.1-1.7-1.6-2.7-1.1l-5.3 2.2c-1.1.4-1.6 1.7-1.1 2.7l1.8 4.4c-2.8 1.8-5.1 4.2-7 7zM56.6 17c9.3-3.9 20.1.6 24 9.9 3.9 9.3-.6 20.1-9.9 24-9.3 3.9-20.1-.6-24-9.9-3.8-9.3.6-20.1 9.9-24zm-4.9 25.4c3.3-2.5 6.5-4.2 7.2-4.5.1 0 .1-.1.1-.2v-2c-.5-.9-.8-1.9-1-2.8-.3 0-.7-.5-1.2-2-.6-2.1 0-2.5.6-2.4-.4-1.1-.4-2.2-.1-3.2.3-1.2.9-2.2 1.7-2.9.5-.5 1-.9 1.5-1.3.5-.3.9-.6 1.5-.8.4-.1.9-.2 1.4-.3 1.5-.1 2.6.2 3.4.7 1.2.7 1.7 1.5 1.7 1.5s3 .2 1.7 6.6c.4.1.7.7.2 2.4-.6 2.1-1.1 2.2-1.4 1.9-.1.7-.3 1.5-.7 2.2v2.4c0 .1.1.2.1.2.7.3 4 2 7.2 4.5-2.4 3.3-6.1 5.6-10.3 6.1l-1-4.8c2.4-3.4-.2-3.5-.6-3.5-.5 0-3 .2-.6 3.5l-1 4.8c-4.4-.4-8.1-2.8-10.4-6.1z" stroke="none" fill="#25b864" stroke-width="1px"></path></svg></g><g fill="#25b864" transform="translate(-237.55849250000003 121.7893333333333) scale(1)" stroke="none" stroke-width="1px"><path fill-rule="nonzero" d="M4.968000-4.032000C3.600000-4.032000 2.592000-3.456000 2.592000-2.016000C2.592000-0.648000 3.600000 0 4.968000 0L19.440000 0C31.536000 0 39.744000-8.064000 39.744000-19.008000C39.744000-41.904000 7.344000-30.816000 7.344000-39.744000C7.344000-43.488000 9.360000-45.504000 15.264000-45.504000L31.176000-45.504000C32.544000-45.504000 33.552000-46.152000 33.552000-47.520000C33.552000-48.960000 32.544000-49.536000 31.176000-49.536000L13.680000-49.536000C6.912000-49.536000 2.736000-45.792000 2.736000-40.608000C2.736000-23.328000 35.136000-38.448000 35.136000-18.720000C35.136000-9.648000 27.936000-4.032000 20.160000-4.032000ZM52.166249-34.200000C52.166249-35.640000 51.518249-36.792000 50.006249-36.792000C48.494249-36.792000 47.846249-35.640000 47.846249-34.200000L47.846249-2.376000C47.846249-0.936000 48.494249 0.216000 50.006249 0.216000C51.518249 0.216000 52.166249-0.936000 52.166249-2.376000ZM52.310249-43.416000C52.310249-44.784000 51.806249-45.720000 50.006249-45.720000C48.206249-45.720000 47.702249-44.784000 47.702249-43.416000L47.702249-41.976000C47.702249-40.608000 48.206249-39.672000 50.006249-39.672000C51.806249-39.672000 52.310249-40.608000 52.310249-41.976000ZM61.132499-2.376000C61.132499-0.936000 61.780499 0.216000 63.292499 0.216000C64.804499 0.216000 65.452499-0.936000 65.452499-2.376000L65.452499-19.440000C65.452499-28.368000 70.204499-33.264000 76.396499-33.264000C82.156499-33.264000 85.828499-30.528000 85.828499-21.600000L85.828499-2.376000C85.828499-0.936000 86.476499 0.216000 87.988499 0.216000C89.500499 0.216000 90.148499-0.936000 90.148499-2.376000L90.148499-19.440000C90.148499-28.368000 94.972499-33.264000 101.092499-33.264000C106.852499-33.264000 110.524499-30.528000 110.524499-21.600000L110.524499-2.376000C110.524499-0.936000 111.172499 0.216000 112.684499 0.216000C114.196499 0.216000 114.844499-0.936000 114.844499-2.376000L114.844499-24.192000C114.844499-32.256000 109.948499-37.008000 101.884499-37.008000C96.124499-37.008000 91.732499-34.128000 89.284499-29.376000C87.052499-34.920000 82.660499-37.008000 76.972499-37.008000C71.644499-37.008000 67.828499-34.416000 65.596499-31.032000L65.452499-31.032000L65.452499-33.984000C65.452499-35.424000 64.804499-36.576000 63.292499-36.576000C61.780499-36.576000 61.132499-35.424000 61.132499-33.984000ZM122.946748 11.520000C122.946748 12.960000 123.594748 14.112000 125.106748 14.112000C126.618748 14.112000 127.266748 12.960000 127.266748 11.664000L127.266748 0L137.490748 0C148.722748 0 155.202748-6.336000 155.202748-16.056000C155.202748-23.616000 150.738748-37.008000 131.586748-37.008000C123.522748-37.008000 122.946748-36.432000 122.946748-33.984000ZM127.266748-32.976000L132.882748-32.976000C143.682748-32.976000 150.594748-24.912000 150.594748-16.776000C150.594748-7.920000 145.698748-4.032000 136.194748-4.032000L127.266748-4.032000ZM166.256997-47.160000C166.256997-48.600000 165.608997-49.752000 164.096997-49.752000C162.584997-49.752000 161.936997-48.600000 161.936997-47.160000L161.936997-2.376000C161.936997-0.936000 162.584997 0.216000 164.096997 0.216000C165.608997 0.216000 166.256997-0.936000 166.256997-2.376000ZM204.383246-18.720000C206.111246-18.720000 206.831246-19.584000 206.831246-21.024000C206.831246-30.384000 200.207246-37.008000 191.135246-37.008000C179.039246-37.008000 173.711246-27.360000 173.711246-18.504000C173.711246-6.192000 181.343246 0 192.719246 0L204.023246 0C205.319246 0 206.399246-0.576000 206.399246-2.016000C206.399246-3.384000 205.319246-4.032000 204.023246-4.032000L192.935246-4.032000C183.071246-4.032000 178.319246-9.648000 178.319246-17.208000C178.319246-17.712000 178.391246-18.216000 178.463246-18.720000ZM178.751246-22.176000C179.615246-28.872000 184.223246-33.264000 190.775246-33.264000C197.327246-33.264000 201.935246-28.872000 202.799246-22.176000ZM238.515745-23.184000C257.379745-27.648000 266.883745-33.552000 266.883745-40.968000C266.883745-46.512000 263.139745-49.536000 256.227745-49.536000L236.499745-49.536000C234.771745-49.536000 233.907745-48.384000 233.907745-46.944000L233.907745-2.376000C233.907745-0.936000 234.627745 0.216000 236.211745 0.216000C237.795745 0.216000 238.515745-0.936000 238.515745-2.376000ZM238.515745-45.504000L256.083745-45.504000C259.827745-45.504000 261.843745-43.632000 261.843745-40.896000C261.843745-35.712000 254.067745-31.248000 238.515745-27.216000ZM272.105994-2.376000C272.105994-0.936000 272.753994 0.216000 274.265994 0.216000C275.777994 0.216000 276.425994-0.936000 276.425994-2.376000L276.425994-22.392000C276.425994-29.304000 279.953994-32.976000 286.721994-32.976000L287.801994-32.976000C289.385994-32.976000 290.249994-33.696000 290.249994-34.992000C290.249994-36.576000 288.017994-37.008000 285.929994-37.008000C281.465994-37.008000 277.577994-34.848000 276.569994-31.680000L276.425994-31.680000L276.425994-33.984000C276.425994-35.424000 275.777994-36.576000 274.265994-36.576000C272.753994-36.576000 272.105994-35.424000 272.105994-33.984000ZM291.224243-18.288000C291.224243-7.200000 298.136243 0.432000 308.216243 0.432000C318.296243 0.432000 325.208243-7.200000 325.208243-18.288000C325.208243-29.376000 318.296243-37.008000 308.216243-37.008000C298.136243-37.008000 291.224243-29.376000 291.224243-18.288000ZM295.832243-18.288000C295.832243-27.504000 300.584243-33.264000 308.216243-33.264000C315.848243-33.264000 320.600243-27.504000 320.600243-18.288000C320.600243-9.072000 315.848243-3.312000 308.216243-3.312000C300.584243-3.312000 295.832243-9.072000 295.832243-18.288000ZM336.406493-34.200000C336.406493-35.640000 335.758493-36.792000 334.246493-36.792000C332.734493-36.792000 332.086493-35.640000 332.086493-34.200000L332.086493 1.800000C332.086493 7.632000 327.982493 10.512000 321.286493 10.512000C319.630493 10.512000 318.406493 9.936000 317.254493 9.936000C316.030493 9.936000 315.526493 11.016000 315.526493 12.024000C315.526493 13.536000 317.974493 14.544000 321.574493 14.544000C330.502493 14.544000 336.478493 10.440000 336.406493 1.656000ZM336.550493-43.416000C336.550493-44.784000 336.046493-45.720000 334.246493-45.720000C332.446493-45.720000 331.942493-44.784000 331.942493-43.416000L331.942493-41.976000C331.942493-40.608000 332.446493-39.672000 334.246493-39.672000C336.046493-39.672000 336.550493-40.608000 336.550493-41.976000ZM374.532742-18.720000C376.260742-18.720000 376.980742-19.584000 376.980742-21.024000C376.980742-30.384000 370.356742-37.008000 361.284742-37.008000C349.188742-37.008000 343.860742-27.360000 343.860742-18.504000C343.860742-6.192000 351.492742 0 362.868742 0L374.172742 0C375.468742 0 376.548742-0.576000 376.548742-2.016000C376.548742-3.384000 375.468742-4.032000 374.172742-4.032000L363.084742-4.032000C353.220742-4.032000 348.468742-9.648000 348.468742-17.208000C348.468742-17.712000 348.540742-18.216000 348.612742-18.720000ZM348.900742-22.176000C349.764742-28.872000 354.372742-33.264000 360.924742-33.264000C367.476742-33.264000 372.084742-28.872000 372.948742-22.176000ZM409.778991-32.544000C411.074991-32.544000 412.154991-33.120000 412.154991-34.560000C412.154991-35.928000 411.074991-36.576000 409.778991-36.576000L399.698991-36.576000C387.962991-36.576000 381.770991-30.960000 381.770991-21.024000C381.770991-9.216000 391.274991 0 403.802991 0L411.074991 0C412.370991 0 413.450991-0.576000 413.450991-2.016000C413.450991-3.384000 412.370991-4.032000 411.074991-4.032000L404.666991-4.032000C393.866991-4.032000 386.378991-10.944000 386.378991-20.880000C386.378991-28.296000 391.490991-32.544000 399.482991-32.544000ZM425.297241-44.640000C425.297241-46.080000 424.649241-47.232000 423.137241-47.232000C421.625241-47.232000 420.977241-46.080000 420.977241-44.640000L420.977241-36.576000L418.169241-36.576000C416.801241-36.576000 415.793241-36.000000 415.793241-34.704000C415.793241-33.408000 416.801241-32.832000 418.169241-32.832000L420.977241-32.832000L420.977241-8.352000C420.977241-2.304000 423.569241 0 429.617241 0L435.305241 0C436.673241 0 437.681241-0.576000 437.681241-1.872000C437.681241-3.168000 436.673241-3.744000 435.305241-3.744000L431.921241-3.744000C427.169241-3.744000 425.297241-5.112000 425.297241-8.352000L425.297241-32.832000L433.721241-32.832000C435.089241-32.832000 436.097241-33.408000 436.097241-34.704000C436.097241-36.000000 435.089241-36.576000 433.721241-36.576000L425.297241-36.576000ZM480.309739-27.792000C468.645739-42.120000 470.373739-49.752000 466.053739-49.752000C462.453739-49.752000 462.885739-47.016000 461.877739-40.968000C459.933739-29.232000 458.853739-12.024000 458.853739-3.024000C458.853739-1.080000 459.213739 0.216000 461.157739 0.216000C463.101739 0.216000 463.461739-1.080000 463.461739-3.024000C463.461739-16.632000 464.469739-30.024000 466.485739-43.272000L466.629739-43.272000C469.941739-34.560000 477.141739-23.112000 480.309739-23.112000C483.477739-23.112000 490.677739-34.560000 493.989739-43.272000L494.133739-43.272000C496.149739-30.024000 497.157739-16.632000 497.157739-3.024000C497.157739-1.080000 497.517739 0.216000 499.461739 0.216000C501.405739 0.216000 501.765739-1.080000 501.765739-3.024000C501.765739-12.024000 500.685739-29.232000 498.741739-40.968000C497.733739-47.016000 498.165739-49.752000 494.565739-49.752000C490.245739-49.752000 491.973739-42.120000 480.309739-27.792000ZM535.427988-25.920000C535.427988-32.832000 532.547988-36.576000 523.475988-36.576000L512.171988-36.576000C510.803988-36.576000 509.723988-35.928000 509.723988-34.560000C509.723988-33.120000 510.803988-32.544000 512.171988-32.544000L523.763988-32.544000C529.019988-32.544000 531.107988-30.888000 531.107988-25.632000L531.107988-23.904000L528.659988-23.904000C513.539988-23.904000 506.483988-18.576000 506.483988-10.440000C506.483988-2.304000 512.387988 0.432000 520.595988 0.432000C525.203988 0.432000 528.947988-0.720000 531.395988-3.168000C531.395988-1.368000 531.539988 0 533.411988 0C535.283988 0 535.427988-1.368000 535.427988-3.168000ZM531.107988-10.944000C531.251988-6.624000 528.515988-3.312000 520.523988-3.312000C515.267988-3.312000 511.091988-5.616000 511.091988-10.080000C511.091988-19.584000 524.627988-20.160000 531.107988-20.160000ZM543.602238-2.376000C543.602238-0.936000 544.250238 0.216000 545.762238 0.216000C547.274238 0.216000 547.922238-0.936000 547.922238-2.376000L547.922238-19.440000C547.922238-28.368000 552.674238-33.264000 559.802238-33.264000C564.770238-33.264000 568.802238-30.168000 568.802238-23.760000L568.802238-2.376000C568.802238-0.936000 569.450238 0.216000 570.962238 0.216000C572.474238 0.216000 573.122238-0.936000 573.122238-2.376000L573.122238-24.336000C573.122238-33.048000 566.642238-37.008000 559.802238-37.008000C553.898238-37.008000 550.298238-34.416000 548.066238-31.032000L547.922238-31.032000L547.922238-33.984000C547.922238-35.424000 547.274238-36.576000 545.762238-36.576000C544.250238-36.576000 543.602238-35.424000 543.602238-33.984000ZM607.504487-25.920000C607.504487-32.832000 604.624487-36.576000 595.552487-36.576000L584.248487-36.576000C582.880487-36.576000 581.800487-35.928000 581.800487-34.560000C581.800487-33.120000 582.880487-32.544000 584.248487-32.544000L595.840487-32.544000C601.096487-32.544000 603.184487-30.888000 603.184487-25.632000L603.184487-23.904000L600.736487-23.904000C585.616487-23.904000 578.560487-18.576000 578.560487-10.440000C578.560487-2.304000 584.464487 0.432000 592.672487 0.432000C597.280487 0.432000 601.024487-0.720000 603.472487-3.168000C603.472487-1.368000 603.616487 0 605.488487 0C607.360487 0 607.504487-1.368000 607.504487-3.168000ZM603.184487-10.944000C603.328487-6.624000 600.592487-3.312000 592.600487-3.312000C587.344487-3.312000 583.168487-5.616000 583.168487-10.080000C583.168487-19.584000 596.704487-20.160000 603.184487-20.160000ZM644.694736-18.720000C646.422736-18.720000 647.142736-19.584000 647.142736-21.024000C647.142736-30.384000 640.518736-37.008000 631.446736-37.008000C619.350736-37.008000 614.022736-27.360000 614.022736-18.504000C614.022736-6.192000 621.654736 0 633.030736 0L644.334736 0C645.630736 0 646.710736-0.576000 646.710736-2.016000C646.710736-3.384000 645.630736-4.032000 644.334736-4.032000L633.246736-4.032000C623.382736-4.032000 618.630736-9.648000 618.630736-17.208000C618.630736-17.712000 618.702736-18.216000 618.774736-18.720000ZM619.062736-22.176000C619.926736-28.872000 624.534736-33.264000 631.086736-33.264000C637.638736-33.264000 642.246736-28.872000 643.110736-22.176000ZM654.380985-2.376000C654.380985-0.936000 655.028985 0.216000 656.540985 0.216000C658.052985 0.216000 658.700985-0.936000 658.700985-2.376000L658.700985-22.392000C658.700985-29.304000 662.228985-32.976000 668.996985-32.976000L670.076985-32.976000C671.660985-32.976000 672.524985-33.696000 672.524985-34.992000C672.524985-36.576000 670.292985-37.008000 668.204985-37.008000C663.740985-37.008000 659.852985-34.848000 658.844985-31.680000L658.700985-31.680000L658.700985-33.984000C658.700985-35.424000 658.052985-36.576000 656.540985-36.576000C655.028985-36.576000 654.380985-35.424000 654.380985-33.984000Z" stroke="none" fill="#25b864" stroke-width="1px"></path></g></g></svg>